<?xml version="1.0" standalone="no"?>
<!DOCTYPE svg PUBLIC "-//W3C//DTD SVG 20010904//EN"
 "http://www.w3.org/TR/2001/REC-SVG-20010904/DTD/svg10.dtd">
<svg version="1.0" xmlns="http://www.w3.org/2000/svg"
 width="389.000000pt" height="389.000000pt" viewBox="0 0 389.000000 389.000000"
 preserveAspectRatio="xMidYMid meet">
<metadata>
Created by potrace 1.11, written by Peter Selinger 2001-2013
</metadata>
<g transform="translate(0.000000,389.000000) scale(0.100000,-0.100000)"
fill="#000000" stroke="none">
<path d="M3091 3625 c-135 -18 -230 -63 -317 -149 -79 -79 -99 -133 -99 -266
0 -109 14 -182 101 -554 35 -148 63 -270 61 -271 -41 -30 -79 -35 -243 -35
-104 0 -175 4 -179 10 -3 6 -50 10 -104 10 l-98 0 -37 -95 c-21 -52 -42 -93
-47 -89 -5 3 -9 45 -9 95 l0 89 -287 -2 -288 -3 -3 -27 c-4 -31 -17 -35 -47
-12 -11 8 -49 24 -85 35 -71 23 -226 27 -290 9 -64 -18 -65 -39 19 335 68 307
84 409 79 524 -3 80 -8 106 -31 153 -34 70 -112 143 -198 185 -87 43 -132 53
-284 59 -104 5 -137 3 -165 -9 -51 -22 -78 -51 -92 -100 -14 -51 -13 -389 2
-418 15 -28 48 -42 114 -50 96 -12 97 0 -21 -369 -35 -113 -70 -223 -77 -244
-11 -37 -16 -40 -73 -56 -124 -34 -212 -111 -277 -244 -69 -141 -119 -415 -81
-446 13 -11 15 -5 15 52 0 139 50 325 115 428 37 59 94 112 150 140 43 22 64
25 155 26 58 1 112 4 121 8 9 4 47 6 85 4 l68 -3 46 -114 c25 -63 50 -116 56
-118 6 -2 27 21 47 50 69 104 159 159 293 178 117 16 224 -5 315 -61 27 -16
53 -30 59 -30 5 0 10 19 12 43 l3 42 258 3 257 4 0 -76 0 -76 -29 0 c-16 0
-41 -4 -56 -10 l-25 -10 2 -272 3 -273 60 1 c92 1 158 43 225 144 13 19 25 36
26 38 1 2 34 -13 73 -32 39 -20 73 -36 76 -36 3 0 5 88 5 195 0 188 -1 195
-20 195 -21 0 -84 -58 -136 -125 l-31 -39 -66 43 c-37 24 -67 50 -67 57 0 8
23 72 51 144 l50 130 78 0 c42 0 82 -5 87 -10 11 -11 306 -8 485 5 l86 6 22
-60 c12 -34 27 -61 33 -61 6 0 31 18 55 40 80 75 204 107 330 88 37 -5 115
-11 172 -12 l104 -1 53 -157 c77 -232 79 -207 -18 -248 -45 -20 -83 -40 -85
-46 -2 -6 17 -25 42 -43 102 -73 165 -197 165 -326 0 -134 -50 -229 -146 -275
-39 -19 -57 -22 -132 -18 -72 4 -102 11 -177 42 -49 21 -101 38 -115 38 -14 0
-57 6 -95 14 l-70 14 -59 163 c-32 89 -59 168 -59 175 -1 8 29 25 77 43 44 16
80 28 81 26 1 -1 23 -34 49 -73 85 -130 184 -203 277 -204 57 0 80 16 81 58 2
53 -46 91 -234 188 -182 94 -238 135 -288 214 l-32 50 -30 -16 c-16 -8 -31
-14 -32 -12 -2 2 -23 30 -47 63 -53 73 -97 115 -121 115 -17 0 -18 -17 -16
-282 l3 -281 25 -8 c14 -4 37 -10 53 -13 27 -6 27 -7 27 -87 l0 -81 -32 6
c-54 11 -272 35 -433 47 -165 13 -706 16 -771 5 l-41 -7 -7 40 c-7 48 -16 50
-59 17 -56 -43 -159 -85 -237 -97 -168 -26 -306 18 -385 123 -16 21 -32 38
-36 38 -4 0 -22 -26 -39 -57 -125 -222 -438 -338 -604 -224 -74 51 -125 142
-148 264 -7 37 -17 66 -23 64 -28 -10 28 -199 80 -269 19 -27 61 -65 92 -85
55 -37 59 -38 147 -38 50 0 105 4 122 8 30 8 31 6 66 -60 55 -107 145 -248
209 -328 68 -84 223 -233 257 -246 12 -5 22 -12 22 -17 0 -13 120 -88 226
-142 78 -40 189 -80 334 -121 49 -13 182 -29 193 -22 15 9 -16 23 -51 23 -102
0 -307 62 -467 141 -143 70 -246 145 -377 275 -135 132 -237 273 -323 443 -26
52 -26 55 -9 68 33 24 48 14 84 -54 183 -352 508 -637 840 -737 146 -44 218
-57 362 -65 349 -20 652 59 923 242 86 58 313 288 372 377 27 41 74 120 103
175 29 55 54 101 55 102 4 6 65 -22 65 -29 0 -21 -96 -196 -161 -294 -84 -125
-238 -285 -368 -381 -209 -156 -488 -255 -784 -279 -48 -3 -75 -9 -71 -16 11
-17 247 8 354 38 145 41 195 60 317 121 163 82 268 159 404 300 110 114 195
232 274 380 78 145 68 135 117 116 66 -24 203 -21 253 4 60 31 93 66 124 133
74 156 36 346 -95 477 -30 30 -54 56 -54 57 0 2 34 18 75 37 41 19 75 39 75
44 0 6 -29 98 -63 205 l-63 195 -120 5 -119 5 -38 120 c-21 66 -56 167 -77
225 -51 136 -92 283 -88 312 3 20 10 24 65 30 68 7 108 28 120 61 10 31 4 386
-8 423 -6 19 -26 43 -51 60 -36 25 -52 29 -117 31 -42 1 -123 -5 -180 -12z
m274 -39 c55 -30 63 -64 64 -272 1 -208 -1 -212 -100 -226 -41 -5 -71 -15 -83
-28 -19 -19 -19 -21 -2 -97 10 -43 34 -121 53 -173 42 -116 118 -345 127 -382
6 -25 4 -28 -21 -28 -16 0 -33 4 -39 8 -6 4 -27 57 -47 117 -19 61 -61 183
-92 273 -100 286 -88 354 68 385 l62 13 3 64 c2 36 1 111 -3 168 -7 98 -8 103
-34 117 -36 18 -230 2 -315 -26 -115 -39 -205 -113 -226 -187 -28 -102 3 -303
115 -736 25 -96 45 -182 45 -191 0 -11 -10 -15 -35 -15 -30 0 -36 4 -41 28 -4
15 -26 104 -50 197 -105 418 -133 629 -98 741 38 122 192 234 350 254 44 6
106 14 139 19 73 11 108 6 160 -23z m-2506 -16 c118 -22 255 -116 300 -205 60
-120 44 -282 -81 -812 l-52 -222 -38 -25 -38 -25 0 23 c0 12 29 150 65 307
115 504 128 636 72 731 -30 51 -106 108 -186 139 -72 27 -270 45 -322 30 -48
-14 -51 -28 -47 -215 l3 -140 30 -7 c17 -4 47 -10 69 -14 75 -13 111 -80 95
-176 -7 -39 -171 -560 -185 -587 -1 -2 -14 0 -29 4 -26 6 -27 9 -22 48 4 22
40 142 81 266 71 217 93 298 87 330 -5 29 -31 44 -92 51 -101 12 -103 16 -107
222 -4 213 3 242 68 275 42 22 53 23 160 18 63 -3 139 -10 169 -16z m2212
-730 c35 -19 18 -80 -22 -80 -21 0 -49 26 -49 45 0 16 27 45 41 45 6 0 19 -5
30 -10z m-2163 -26 c21 -38 -14 -73 -58 -59 -23 7 -29 60 -7 68 26 11 56 6 65
-9z m1222 -659 c0 -2 -9 -27 -20 -55 l-20 -51 85 -54 c47 -30 89 -55 94 -55 5
0 25 21 44 48 47 63 93 106 106 98 14 -9 15 -265 1 -286 -8 -12 -17 -11 -65
13 -30 15 -59 27 -64 27 -5 0 -23 -23 -41 -50 -45 -70 -102 -116 -161 -130
-83 -20 -79 -32 -79 243 0 134 3 247 7 250 7 8 113 10 113 2z m744 -171 l48
-69 -6 -125 c-3 -69 -11 -147 -19 -175 l-12 -50 -40 3 c-22 1 -46 5 -52 7 -10
3 -13 64 -13 256 l0 251 23 -14 c12 -8 44 -46 71 -84z m131 -88 c12 -17 16
-45 14 -96 -2 -72 -2 -72 -35 -86 -18 -8 -36 -14 -39 -14 -3 0 -5 47 -5 104 0
104 3 113 37 115 7 1 20 -10 28 -23z m-39 -281 c15 -46 16 -62 6 -106 -15 -64
-78 -199 -129 -276 -56 -85 -173 -203 -259 -263 -188 -130 -462 -207 -702
-198 -102 4 -131 9 -227 42 -287 99 -459 221 -591 422 -61 93 -80 134 -61 133
45 -3 79 -28 118 -89 114 -177 269 -291 509 -375 156 -54 259 -69 378 -55 363
43 629 191 779 433 34 53 38 57 74 57 l39 0 0 81 c0 81 28 249 42 249 4 0 15
-25 24 -55z m485 -16 c18 -13 28 -27 25 -37 -2 -10 -7 -30 -11 -45 -5 -26 -9
-28 -33 -22 -15 3 -30 10 -35 14 -8 8 10 111 20 111 3 0 18 -9 34 -21z m76
-65 c3 -8 -2 -23 -11 -32 -15 -15 -16 -14 -16 16 0 33 16 43 27 16z m-1979
-110 c3 -18 13 -19 320 -15 312 3 522 -6 781 -34 68 -8 129 -19 134 -24 8 -8
-4 -32 -36 -78 -41 -60 -141 -173 -153 -173 -2 0 -25 -15 -51 -34 -70 -50
-178 -103 -258 -127 -38 -11 -81 -24 -95 -29 -52 -19 -159 -32 -260 -32 -86
-1 -121 4 -194 26 -118 36 -247 89 -321 134 -112 68 -305 283 -273 304 7 4 38
8 69 8 75 0 201 33 263 69 56 33 70 34 74 5z m-494 -420 c21 -8 21 -60 0 -68
-29 -11 -53 -6 -64 13 -13 25 -13 27 6 45 16 17 33 20 58 10z m1910 -36 c15
-24 -3 -52 -36 -56 -32 -4 -52 20 -44 53 6 22 12 26 38 23 17 -2 36 -11 42
-20z m-983 -388 c26 -14 25 -56 -2 -70 -25 -14 -44 -8 -59 19 -8 17 -7 24 10
41 23 23 25 23 51 10z"/>
<path d="M1113 2250 c-104 -42 -193 -152 -224 -280 -33 -137 -5 -327 62 -418
66 -90 150 -127 273 -120 68 4 93 10 160 42 162 78 246 215 246 401 0 169 -64
287 -192 355 -59 32 -70 35 -168 37 -87 3 -114 0 -157 -17z m233 -69 c40 -24
82 -79 94 -122 22 -75 30 -192 20 -283 -17 -151 -77 -240 -180 -267 -120 -32
-203 39 -231 196 -14 81 -7 294 12 345 20 56 65 116 101 133 47 23 144 22 184
-2z"/>
<path d="M1183 2132 c-43 -44 -65 -113 -70 -228 -11 -206 40 -344 127 -344 45
0 90 37 118 98 26 54 27 65 27 207 0 121 -4 159 -18 197 -37 96 -125 129 -184
70z m155 -71 c23 -50 26 -69 27 -171 0 -137 -16 -209 -57 -256 -38 -43 -78
-46 -113 -8 -38 41 -48 95 -47 252 1 116 5 150 20 185 29 64 61 82 116 64 21
-7 35 -24 54 -66z"/>
<path d="M1650 2252 c0 -13 12 -22 41 -31 66 -20 69 -37 69 -345 0 -179 -4
-273 -12 -290 -6 -14 -31 -35 -55 -47 -23 -11 -43 -27 -43 -35 0 -11 52 -13
310 -11 l311 2 44 95 c49 106 52 115 30 124 -10 3 -30 -11 -56 -39 -23 -25
-70 -59 -106 -77 -55 -27 -75 -31 -147 -32 -130 -2 -122 -20 -128 307 -3 151
-1 284 4 298 9 26 27 39 81 59 16 6 27 16 24 23 -3 9 -51 13 -185 15 -172 2
-182 1 -182 -16z"/>
<path d="M2281 2253 c-15 -28 -71 -172 -71 -182 0 -5 7 -11 15 -15 9 -3 32 11
59 39 56 56 117 87 175 89 71 2 72 -1 69 -330 -3 -260 -4 -284 -22 -303 -10
-11 -34 -23 -52 -27 -24 -4 -34 -12 -34 -25 0 -11 6 -19 13 -19 6 0 75 -7 152
-15 77 -8 155 -15 173 -15 44 0 42 23 -5 47 -72 35 -72 36 -79 350 -6 258 -5
285 11 309 15 23 22 26 60 21 60 -6 129 -49 173 -107 38 -50 49 -55 65 -28 12
19 -59 205 -85 221 -12 8 -27 6 -55 -6 -34 -16 -59 -16 -258 -8 -121 6 -236
13 -257 16 -30 6 -38 3 -47 -12z"/>
<path d="M3247 2260 c-51 -13 -108 -43 -134 -72 -53 -57 -67 -151 -33 -225 35
-78 93 -124 265 -207 190 -93 238 -126 265 -181 24 -49 25 -83 5 -131 -46
-110 -252 -67 -396 83 -36 38 -74 81 -85 97 -18 25 -23 27 -42 17 l-21 -11 38
-108 c22 -59 42 -115 46 -124 9 -22 43 -23 65 -3 14 12 27 9 115 -35 66 -33
124 -54 170 -62 68 -11 73 -10 127 14 128 59 171 214 99 357 -37 72 -120 134
-289 216 -86 42 -171 88 -189 101 -65 49 -65 146 0 181 44 23 139 23 202 -1
67 -25 111 -58 165 -122 45 -55 55 -60 78 -45 11 7 6 32 -27 126 -23 64 -41
119 -41 121 0 10 -69 3 -72 -8 -3 -9 -21 -7 -67 6 -76 21 -192 29 -244 16z"/>
<path d="M385 2248 c-165 -59 -276 -301 -262 -568 18 -333 200 -477 446 -354
86 43 152 112 197 209 43 90 42 119 -3 123 -28 3 -33 0 -39 -25 -26 -106 -109
-209 -191 -237 -61 -21 -86 -20 -133 4 -28 14 -45 33 -64 72 -39 82 -49 158
-44 329 6 180 27 267 82 326 28 31 40 37 90 41 83 7 138 -17 212 -94 58 -60
61 -61 81 -45 l22 16 -43 105 c-38 95 -45 105 -70 108 -20 3 -29 -1 -33 -16
-5 -19 -6 -19 -65 -1 -66 21 -137 23 -183 7z"/>
<path d="M446 2109 c-59 -46 -86 -148 -86 -324 0 -182 30 -289 90 -320 37 -19
53 -19 91 0 58 31 103 117 124 239 l6 38 63 -7 c48 -5 64 -3 68 7 2 7 5 64 7
126 2 81 -1 112 -9 112 -7 0 -30 -10 -52 -22 l-40 -23 -21 30 c-45 63 -114
129 -152 146 -51 24 -57 23 -89 -2z"/>
<path d="M3318 2113 c-22 -5 -23 -36 -3 -53 14 -11 272 -140 281 -140 12 0
-38 79 -72 114 -54 55 -153 93 -206 79z"/>
<path d="M37 1648 c-2 -7 -1 -22 4 -33 6 -16 8 -14 8 13 1 33 -4 41 -12 20z"/>
<path d="M1834 271 c8 -12 70 -21 98 -13 22 6 22 7 -7 13 -45 10 -97 10 -91 0z"/>
</g>
</svg>
